<svg id="SVGID" width="100%" xmlns="http://www.w3.org/2000/svg" style="max-width: 721.6629028320312px;" viewBox="-119.69731140136719 0 721.6629028320312 525.3333435058594" role="graphics-document document" aria-roledescription="er"><style>#SVGID{font-family:"trebuchet ms",verdana,arial,sans-serif;font-size:16px;fill:#000000;}#SVGID .error-icon{fill:#552222;}#SVGID .error-text{fill:#552222;stroke:#552222;}#SVGID .edge-thickness-normal{stroke-width:1px;}#SVGID .edge-thickness-thick{stroke-width:3.5px;}#SVGID .edge-pattern-solid{stroke-dasharray:0;}#SVGID .edge-thickness-invisible{stroke-width:0;fill:none;}#SVGID .edge-pattern-dashed{stroke-dasharray:3;}#SVGID .edge-pattern-dotted{stroke-dasharray:2;}#SVGID .marker{fill:#666;stroke:#666;}#SVGID .marker.cross{stroke:#666;}#SVGID svg{font-family:"trebuchet ms",verdana,arial,sans-serif;font-size:16px;}#SVGID p{margin:0;}#SVGID .entityBox{fill:#eee;stroke:#999;}#SVGID .attributeBoxOdd{fill:#ffffff;stroke:#999;}#SVGID .attributeBoxEven{fill:#f2f2f2;stroke:#999;}#SVGID .relationshipLabelBox{fill:hsl(-160, 0%, 93.3333333333%);opacity:0.7;background-color:hsl(-160, 0%, 93.3333333333%);}#SVGID .relationshipLabelBox rect{opacity:0.5;}#SVGID .relationshipLine{stroke:#666;}#SVGID .entityTitleText{text-anchor:middle;font-size:18px;fill:#000000;}#SVGID #MD_PARENT_START{fill:#f5f5f5!important;stroke:#666!important;stroke-width:1;}#SVGID #MD_PARENT_END{fill:#f5f5f5!important;stroke:#666!important;stroke-width:1;}#SVGID :root{--mermaid-font-family:"trebuchet ms",verdana,arial,sans-serif;}</style><g></g><defs><marker id="MD_PARENT_START" refX="0" refY="7" markerWidth="190" markerHeight="240" orient="auto"><path d="M 18,7 L9,13 L1,7 L9,1 Z"></path></marker></defs><defs><marker id="MD_PARENT_END" refX="19" refY="7" markerWidth="20" markerHeight="28" orient="auto"><path d="M 18,7 L9,13 L1,7 L9,1 Z"></path></marker></defs><defs><marker id="ONLY_ONE_START" refX="0" refY="9" markerWidth="18" markerHeight="18" orient="auto"><path stroke="gray" fill="none" d="M9,0 L9,18 M15,0 L15,18"></path></marker></defs><defs><marker id="ONLY_ONE_END" refX="18" refY="9" markerWidth="18" markerHeight="18" orient="auto"><path stroke="gray" fill="none" d="M3,0 L3,18 M9,0 L9,18"></path></marker></defs><defs><marker id="ZERO_OR_ONE_START" refX="0" refY="9" markerWidth="30" markerHeight="18" orient="auto"><circle stroke="gray" fill="white" cx="21" cy="9" r="6"></circle><path stroke="gray" fill="none" d="M9,0 L9,18"></path></marker></defs><defs><marker id="ZERO_OR_ONE_END" refX="30" refY="9" markerWidth="30" markerHeight="18" orient="auto"><circle stroke="gray" fill="white" cx="9" cy="9" r="6"></circle><path stroke="gray" fill="none" d="M21,0 L21,18"></path></marker></defs><defs><marker id="ONE_OR_MORE_START" refX="18" refY="18" markerWidth="45" markerHeight="36" orient="auto"><path stroke="gray" fill="none" d="M0,18 Q 18,0 36,18 Q 18,36 0,18 M42,9 L42,27"></path></marker></defs><defs><marker id="ONE_OR_MORE_END" refX="27" refY="18" markerWidth="45" markerHeight="36" orient="auto"><path stroke="gray" fill="none" d="M3,9 L3,27 M9,18 Q27,0 45,18 Q27,36 9,18"></path></marker></defs><defs><marker id="ZERO_OR_MORE_START" refX="18" refY="18" markerWidth="57" markerHeight="36" orient="auto"><circle stroke="gray" fill="white" cx="48" cy="18" r="6"></circle><path stroke="gray" fill="none" d="M0,18 Q18,0 36,18 Q18,36 0,18"></path></marker></defs><defs><marker id="ZERO_OR_MORE_END" refX="39" refY="18" markerWidth="57" markerHeight="36" orient="auto"><circle stroke="gray" fill="white" cx="9" cy="18" r="6"></circle><path stroke="gray" fill="none" d="M21,18 Q39,0 57,18 Q39,36 21,18"></path></marker></defs><path class="er relationshipLine" d="M251.536,106.804L261.734,115.337C271.933,123.87,292.329,140.935,302.528,157.801C312.726,174.667,312.726,191.333,312.726,199.667L312.726,208" marker-end="url(#ZERO_OR_MORE_END)" marker-start="url(#ONLY_ONE_START)" style="stroke: gray; fill: none;"></path><path class="er relationshipLine" d="M251.536,81.876L287.847,94.563C324.158,107.251,396.78,132.625,433.091,160.979C469.402,189.333,469.402,220.667,469.402,252C469.402,283.333,469.402,314.667,473.383,338.667C477.364,362.667,485.326,379.333,489.307,387.667L493.287,396" marker-end="url(#ZERO_OR_MORE_END)" marker-start="url(#ONLY_ONE_START)" style="stroke: gray; fill: none;"></path><path class="er relationshipLine" d="M149.215,106.804L139.017,115.337C128.818,123.87,108.422,140.935,98.223,157.801C88.025,174.667,88.025,191.333,88.025,199.667L88.025,208" marker-end="url(#ZERO_OR_MORE_END)" marker-start="url(#ONLY_ONE_START)" style="stroke: gray; fill: none;"></path><path class="er relationshipLine" d="M149.215,81.152L111.013,93.96C72.81,106.768,-3.595,132.384,-41.797,160.859C-80,189.333,-80,220.667,-80,252C-80,283.333,-80,314.667,-58.743,341.664C-37.486,368.661,5.027,391.322,26.284,402.652L47.541,413.983" marker-end="url(#ZERO_OR_MORE_END)" marker-start="url(#ONLY_ONE_START)" style="stroke: gray; fill: none;"></path><path class="er relationshipLine" d="M312.726,296L312.726,304.333C312.726,312.667,312.726,329.333,291.469,348.997C270.212,368.661,227.699,391.322,206.442,402.652L185.185,413.983" marker-end="url(#ZERO_OR_MORE_END)" marker-start="url(#ONLY_ONE_START)" style="stroke: gray; fill: none;"></path><path class="er relationshipLine" d="M369.402,272.756L402.735,284.963C436.069,297.171,502.735,321.585,532.088,342.126C561.44,362.667,553.479,379.333,549.498,387.667L545.517,396" marker-end="url(#ZERO_OR_MORE_END)" marker-start="url(#ONLY_ONE_START)" style="stroke: gray; fill: none;"></path><g id="entity-USER-6e7e2962-0c6f-577d-a7fd-2ce3a0cfd2c8" transform="translate(149.2151222229004,20 )"><rect class="er entityBox" x="0" y="0" width="102.3208646774292" height="88.00000190734863"></rect><text class="er entityLabel" id="text-entity-USER-6e7e2962-0c6f-577d-a7fd-2ce3a0cfd2c8" x="0" y="0" style="dominant-baseline: middle; text-anchor: middle; font-size: 12px;" transform="translate(51.1604323387146,12)">USER</text><rect class="er attributeBoxOdd" x="0" y="24" width="35.9389762878418" height="21.33333396911621"></rect><text class="er entityLabel" id="text-entity-USER-6e7e2962-0c6f-577d-a7fd-2ce3a0cfd2c8-attr-1-type" x="0" y="0" style="dominant-baseline: middle; font-size: 10.2px;" transform="translate(5,34.666666984558105)">int</text><rect class="er attributeBoxOdd" x="35.9389762878418" y="24" width="44.69791793823242" height="21.33333396911621"></rect><text class="er entityLabel" id="text-entity-USER-6e7e2962-0c6f-577d-a7fd-2ce3a0cfd2c8-attr-1-name" x="0" y="0" style="dominant-baseline: middle; font-size: 10.2px;" transform="translate(40.9389762878418,34.666666984558105)">User_ID</text><rect class="er attributeBoxOdd" x="80.63689422607422" y="24" width="21.68397045135498" height="21.33333396911621"></rect><text class="er entityLabel" id="text-entity-USER-6e7e2962-0c6f-577d-a7fd-2ce3a0cfd2c8-attr-1-key" x="0" y="0" style="dominant-baseline: middle; font-size: 10.2px;" transform="translate(85.63689422607422,34.666666984558105)">PK</text><rect class="er attributeBoxEven" x="0" y="45.33333396911621" width="35.9389762878418" height="21.33333396911621"></rect><text class="er entityLabel" id="text-entity-USER-6e7e2962-0c6f-577d-a7fd-2ce3a0cfd2c8-attr-2-type" x="0" y="0" style="dominant-baseline: middle; font-size: 10.2px;" transform="translate(5,56.000000953674316)">string</text><rect class="er attributeBoxEven" x="35.9389762878418" y="45.33333396911621" width="44.69791793823242" height="21.33333396911621"></rect><text class="er entityLabel" id="text-entity-USER-6e7e2962-0c6f-577d-a7fd-2ce3a0cfd2c8-attr-2-name" x="0" y="0" style="dominant-baseline: middle; font-size: 10.2px;" transform="translate(40.9389762878418,56.000000953674316)">Email</text><rect class="er attributeBoxEven" x="80.63689422607422" y="45.33333396911621" width="21.68397045135498" height="21.33333396911621"></rect><text class="er entityLabel" id="text-entity-USER-6e7e2962-0c6f-577d-a7fd-2ce3a0cfd2c8-attr-2-key" x="0" y="0" style="dominant-baseline: middle; font-size: 10.2px;" transform="translate(85.63689422607422,56.000000953674316)"></text><rect class="er attributeBoxOdd" x="0" y="66.66666793823242" width="35.9389762878418" height="21.33333396911621"></rect><text class="er entityLabel" id="text-entity-USER-6e7e2962-0c6f-577d-a7fd-2ce3a0cfd2c8-attr-3-type" x="0" y="0" style="dominant-baseline: middle; font-size: 10.2px;" transform="translate(5,77.33333492279053)">string</text><rect class="er attributeBoxOdd" x="35.9389762878418" y="66.66666793823242" width="44.69791793823242" height="21.33333396911621"></rect><text class="er entityLabel" id="text-entity-USER-6e7e2962-0c6f-577d-a7fd-2ce3a0cfd2c8-attr-3-name" x="0" y="0" style="dominant-baseline: middle; font-size: 10.2px;" transform="translate(40.9389762878418,77.33333492279053)">Role</text><rect class="er attributeBoxOdd" x="80.63689422607422" y="66.66666793823242" width="21.68397045135498" height="21.33333396911621"></rect><text class="er entityLabel" id="text-entity-USER-6e7e2962-0c6f-577d-a7fd-2ce3a0cfd2c8-attr-3-key" x="0" y="0" style="dominant-baseline: middle; font-size: 10.2px;" transform="translate(85.63689422607422,77.33333492279053)"></text></g><g id="entity-BILL-d42160ff-e0e5-5656-aeb0-3960ccd5ed9f" transform="translate(256.05003356933594,208 )"><rect class="er entityBox" x="0" y="0" width="113.3521146774292" height="88.00000190734863"></rect><text class="er entityLabel" id="text-entity-BILL-d42160ff-e0e5-5656-aeb0-3960ccd5ed9f" x="0" y="0" style="dominant-baseline: middle; text-anchor: middle; font-size: 12px;" transform="translate(56.6760573387146,12)">BILL</text><rect class="er attributeBoxOdd" x="0" y="24" width="35.9389762878418" height="21.33333396911621"></rect><text class="er entityLabel" id="text-entity-BILL-d42160ff-e0e5-5656-aeb0-3960ccd5ed9f-attr-1-type" x="0" y="0" style="dominant-baseline: middle; font-size: 10.2px;" transform="translate(5,34.666666984558105)">int</text><rect class="er attributeBoxOdd" x="35.9389762878418" y="24" width="55.72916793823242" height="21.33333396911621"></rect><text class="er entityLabel" id="text-entity-BILL-d42160ff-e0e5-5656-aeb0-3960ccd5ed9f-attr-1-name" x="0" y="0" style="dominant-baseline: middle; font-size: 10.2px;" transform="translate(40.9389762878418,34.666666984558105)">Bill_ID</text><rect class="er attributeBoxOdd" x="91.66814422607422" y="24" width="21.68397045135498" height="21.33333396911621"></rect><text class="er entityLabel" id="text-entity-BILL-d42160ff-e0e5-5656-aeb0-3960ccd5ed9f-attr-1-key" x="0" y="0" style="dominant-baseline: middle; font-size: 10.2px;" transform="translate(96.66814422607422,34.666666984558105)">PK</text><rect class="er attributeBoxEven" x="0" y="45.33333396911621" width="35.9389762878418" height="21.33333396911621"></rect><text class="er entityLabel" id="text-entity-BILL-d42160ff-e0e5-5656-aeb0-3960ccd5ed9f-attr-2-type" x="0" y="0" style="dominant-baseline: middle; font-size: 10.2px;" transform="translate(5,56.000000953674316)">string</text><rect class="er attributeBoxEven" x="35.9389762878418" y="45.33333396911621" width="55.72916793823242" height="21.33333396911621"></rect><text class="er entityLabel" id="text-entity-BILL-d42160ff-e0e5-5656-aeb0-3960ccd5ed9f-attr-2-name" x="0" y="0" style="dominant-baseline: middle; font-size: 10.2px;" transform="translate(40.9389762878418,56.000000953674316)">Title</text><rect class="er attributeBoxEven" x="91.66814422607422" y="45.33333396911621" width="21.68397045135498" height="21.33333396911621"></rect><text class="er entityLabel" id="text-entity-BILL-d42160ff-e0e5-5656-aeb0-3960ccd5ed9f-attr-2-key" x="0" y="0" style="dominant-baseline: middle; font-size: 10.2px;" transform="translate(96.66814422607422,56.000000953674316)"></text><rect class="er attributeBoxOdd" x="0" y="66.66666793823242" width="35.9389762878418" height="21.33333396911621"></rect><text class="er entityLabel" id="text-entity-BILL-d42160ff-e0e5-5656-aeb0-3960ccd5ed9f-attr-3-type" x="0" y="0" style="dominant-baseline: middle; font-size: 10.2px;" transform="translate(5,77.33333492279053)">int</text><rect class="er attributeBoxOdd" x="35.9389762878418" y="66.66666793823242" width="55.72916793823242" height="21.33333396911621"></rect><text class="er entityLabel" id="text-entity-BILL-d42160ff-e0e5-5656-aeb0-3960ccd5ed9f-attr-3-name" x="0" y="0" style="dominant-baseline: middle; font-size: 10.2px;" transform="translate(40.9389762878418,77.33333492279053)">Author_ID</text><rect class="er attributeBoxOdd" x="91.66814422607422" y="66.66666793823242" width="21.68397045135498" height="21.33333396911621"></rect><text class="er entityLabel" id="text-entity-BILL-d42160ff-e0e5-5656-aeb0-3960ccd5ed9f-attr-3-key" x="0" y="0" style="dominant-baseline: middle; font-size: 10.2px;" transform="translate(96.66814422607422,77.33333492279053)">FK</text></g><g id="entity-VOTE-5664696a-7c67-5528-96ae-461d2d3d6ce5" transform="translate(456.83874130249023,396 )"><rect class="er entityBox" x="0" y="0" width="125.12681484222412" height="109.33333587646484"></rect><text class="er entityLabel" id="text-entity-VOTE-5664696a-7c67-5528-96ae-461d2d3d6ce5" x="0" y="0" style="dominant-baseline: middle; text-anchor: middle; font-size: 12px;" transform="translate(62.56340742111206,12)">VOTE</text><rect class="er attributeBoxOdd" x="0" y="24" width="35.9389762878418" height="21.33333396911621"></rect><text class="er entityLabel" id="text-entity-VOTE-5664696a-7c67-5528-96ae-461d2d3d6ce5-attr-1-type" x="0" y="0" style="dominant-baseline: middle; font-size: 10.2px;" transform="translate(5,34.666666984558105)">int</text><rect class="er attributeBoxOdd" x="35.9389762878418" y="24" width="67.50386810302734" height="21.33333396911621"></rect><text class="er entityLabel" id="text-entity-VOTE-5664696a-7c67-5528-96ae-461d2d3d6ce5-attr-1-name" x="0" y="0" style="dominant-baseline: middle; font-size: 10.2px;" transform="translate(40.9389762878418,34.666666984558105)">Vote_ID</text><rect class="er attributeBoxOdd" x="103.44284439086914" y="24" width="21.68397045135498" height="21.33333396911621"></rect><text class="er entityLabel" id="text-entity-VOTE-5664696a-7c67-5528-96ae-461d2d3d6ce5-attr-1-key" x="0" y="0" style="dominant-baseline: middle; font-size: 10.2px;" transform="translate(108.44284439086914,34.666666984558105)">PK</text><rect class="er attributeBoxEven" x="0" y="45.33333396911621" width="35.9389762878418" height="21.33333396911621"></rect><text class="er entityLabel" id="text-entity-VOTE-5664696a-7c67-5528-96ae-461d2d3d6ce5-attr-2-type" x="0" y="0" style="dominant-baseline: middle; font-size: 10.2px;" transform="translate(5,56.000000953674316)">int</text><rect class="er attributeBoxEven" x="35.9389762878418" y="45.33333396911621" width="67.50386810302734" height="21.33333396911621"></rect><text class="er entityLabel" id="text-entity-VOTE-5664696a-7c67-5528-96ae-461d2d3d6ce5-attr-2-name" x="0" y="0" style="dominant-baseline: middle; font-size: 10.2px;" transform="translate(40.9389762878418,56.000000953674316)">User_ID</text><rect class="er attributeBoxEven" x="103.44284439086914" y="45.33333396911621" width="21.68397045135498" height="21.33333396911621"></rect><text class="er entityLabel" id="text-entity-VOTE-5664696a-7c67-5528-96ae-461d2d3d6ce5-attr-2-key" x="0" y="0" style="dominant-baseline: middle; font-size: 10.2px;" transform="translate(108.44284439086914,56.000000953674316)">FK</text><rect class="er attributeBoxOdd" x="0" y="66.66666793823242" width="35.9389762878418" height="21.33333396911621"></rect><text class="er entityLabel" id="text-entity-VOTE-5664696a-7c67-5528-96ae-461d2d3d6ce5-attr-3-type" x="0" y="0" style="dominant-baseline: middle; font-size: 10.2px;" transform="translate(5,77.33333492279053)">int</text><rect class="er attributeBoxOdd" x="35.9389762878418" y="66.66666793823242" width="67.50386810302734" height="21.33333396911621"></rect><text class="er entityLabel" id="text-entity-VOTE-5664696a-7c67-5528-96ae-461d2d3d6ce5-attr-3-name" x="0" y="0" style="dominant-baseline: middle; font-size: 10.2px;" transform="translate(40.9389762878418,77.33333492279053)">Bill_ID</text><rect class="er attributeBoxOdd" x="103.44284439086914" y="66.66666793823242" width="21.68397045135498" height="21.33333396911621"></rect><text class="er entityLabel" id="text-entity-VOTE-5664696a-7c67-5528-96ae-461d2d3d6ce5-attr-3-key" x="0" y="0" style="dominant-baseline: middle; font-size: 10.2px;" transform="translate(108.44284439086914,77.33333492279053)">FK</text><rect class="er attributeBoxEven" x="0" y="88.00000190734863" width="35.9389762878418" height="21.33333396911621"></rect><text class="er entityLabel" id="text-entity-VOTE-5664696a-7c67-5528-96ae-461d2d3d6ce5-attr-4-type" x="0" y="0" style="dominant-baseline: middle; font-size: 10.2px;" transform="translate(5,98.66666889190674)">string</text><rect class="er attributeBoxEven" x="35.9389762878418" y="88.00000190734863" width="67.50386810302734" height="21.33333396911621"></rect><text class="er entityLabel" id="text-entity-VOTE-5664696a-7c67-5528-96ae-461d2d3d6ce5-attr-4-name" x="0" y="0" style="dominant-baseline: middle; font-size: 10.2px;" transform="translate(40.9389762878418,98.66666889190674)">Vote_Choice</text><rect class="er attributeBoxEven" x="103.44284439086914" y="88.00000190734863" width="21.68397045135498" height="21.33333396911621"></rect><text class="er entityLabel" id="text-entity-VOTE-5664696a-7c67-5528-96ae-461d2d3d6ce5-attr-4-key" x="0" y="0" style="dominant-baseline: middle; font-size: 10.2px;" transform="translate(108.44284439086914,98.66666889190674)"></text></g><g id="entity-NOTIFICATION-5f6efb57-77a0-5636-b1c2-92f816a1abf8" transform="translate(20,208 )"><rect class="er entityBox" x="0" y="0" width="136.05003261566162" height="88.00000190734863"></rect><text class="er entityLabel" id="text-entity-NOTIFICATION-5f6efb57-77a0-5636-b1c2-92f816a1abf8" x="0" y="0" style="dominant-baseline: middle; text-anchor: middle; font-size: 12px;" transform="translate(68.02501630783081,12)">NOTIFICATION</text><rect class="er attributeBoxOdd" x="0" y="24" width="35.9389762878418" height="21.33333396911621"></rect><text class="er entityLabel" id="text-entity-NOTIFICATION-5f6efb57-77a0-5636-b1c2-92f816a1abf8-attr-1-type" x="0" y="0" style="dominant-baseline: middle; font-size: 10.2px;" transform="translate(5,34.666666984558105)">int</text><rect class="er attributeBoxOdd" x="35.9389762878418" y="24" width="78.42708587646484" height="21.33333396911621"></rect><text class="er entityLabel" id="text-entity-NOTIFICATION-5f6efb57-77a0-5636-b1c2-92f816a1abf8-attr-1-name" x="0" y="0" style="dominant-baseline: middle; font-size: 10.2px;" transform="translate(40.9389762878418,34.666666984558105)">Notification_ID</text><rect class="er attributeBoxOdd" x="114.36606216430664" y="24" width="21.68397045135498" height="21.33333396911621"></rect><text class="er entityLabel" id="text-entity-NOTIFICATION-5f6efb57-77a0-5636-b1c2-92f816a1abf8-attr-1-key" x="0" y="0" style="dominant-baseline: middle; font-size: 10.2px;" transform="translate(119.36606216430664,34.666666984558105)">PK</text><rect class="er attributeBoxEven" x="0" y="45.33333396911621" width="35.9389762878418" height="21.33333396911621"></rect><text class="er entityLabel" id="text-entity-NOTIFICATION-5f6efb57-77a0-5636-b1c2-92f816a1abf8-attr-2-type" x="0" y="0" style="dominant-baseline: middle; font-size: 10.2px;" transform="translate(5,56.000000953674316)">int</text><rect class="er attributeBoxEven" x="35.9389762878418" y="45.33333396911621" width="78.42708587646484" height="21.33333396911621"></rect><text class="er entityLabel" id="text-entity-NOTIFICATION-5f6efb57-77a0-5636-b1c2-92f816a1abf8-attr-2-name" x="0" y="0" style="dominant-baseline: middle; font-size: 10.2px;" transform="translate(40.9389762878418,56.000000953674316)">User_ID</text><rect class="er attributeBoxEven" x="114.36606216430664" y="45.33333396911621" width="21.68397045135498" height="21.33333396911621"></rect><text class="er entityLabel" id="text-entity-NOTIFICATION-5f6efb57-77a0-5636-b1c2-92f816a1abf8-attr-2-key" x="0" y="0" style="dominant-baseline: middle; font-size: 10.2px;" transform="translate(119.36606216430664,56.000000953674316)">FK</text><rect class="er attributeBoxOdd" x="0" y="66.66666793823242" width="35.9389762878418" height="21.33333396911621"></rect><text class="er entityLabel" id="text-entity-NOTIFICATION-5f6efb57-77a0-5636-b1c2-92f816a1abf8-attr-3-type" x="0" y="0" style="dominant-baseline: middle; font-size: 10.2px;" transform="translate(5,77.33333492279053)">string</text><rect class="er attributeBoxOdd" x="35.9389762878418" y="66.66666793823242" width="78.42708587646484" height="21.33333396911621"></rect><text class="er entityLabel" id="text-entity-NOTIFICATION-5f6efb57-77a0-5636-b1c2-92f816a1abf8-attr-3-name" x="0" y="0" style="dominant-baseline: middle; font-size: 10.2px;" transform="translate(40.9389762878418,77.33333492279053)">Message</text><rect class="er attributeBoxOdd" x="114.36606216430664" y="66.66666793823242" width="21.68397045135498" height="21.33333396911621"></rect><text class="er entityLabel" id="text-entity-NOTIFICATION-5f6efb57-77a0-5636-b1c2-92f816a1abf8-attr-3-key" x="0" y="0" style="dominant-baseline: middle; font-size: 10.2px;" transform="translate(119.36606216430664,77.33333492279053)"></text></g><g id="entity-AMENDMENT-3e98b325-bfaf-550f-b483-be877c351794" transform="translate(47.54115295410156,396 )"><rect class="er entityBox" x="0" y="0" width="137.64378261566162" height="109.33333587646484"></rect><text class="er entityLabel" id="text-entity-AMENDMENT-3e98b325-bfaf-550f-b483-be877c351794" x="0" y="0" style="dominant-baseline: middle; text-anchor: middle; font-size: 12px;" transform="translate(68.82189130783081,12)">AMENDMENT</text><rect class="er attributeBoxOdd" x="0" y="24" width="35.9389762878418" height="21.33333396911621"></rect><text class="er entityLabel" id="text-entity-AMENDMENT-3e98b325-bfaf-550f-b483-be877c351794-attr-1-type" x="0" y="0" style="dominant-baseline: middle; font-size: 10.2px;" transform="translate(5,34.666666984558105)">int</text><rect class="er attributeBoxOdd" x="35.9389762878418" y="24" width="80.02083587646484" height="21.33333396911621"></rect><text class="er entityLabel" id="text-entity-AMENDMENT-3e98b325-bfaf-550f-b483-be877c351794-attr-1-name" x="0" y="0" style="dominant-baseline: middle; font-size: 10.2px;" transform="translate(40.9389762878418,34.666666984558105)">Amendment_ID</text><rect class="er attributeBoxOdd" x="115.95981216430664" y="24" width="21.68397045135498" height="21.33333396911621"></rect><text class="er entityLabel" id="text-entity-AMENDMENT-3e98b325-bfaf-550f-b483-be877c351794-attr-1-key" x="0" y="0" style="dominant-baseline: middle; font-size: 10.2px;" transform="translate(120.95981216430664,34.666666984558105)">PK</text><rect class="er attributeBoxEven" x="0" y="45.33333396911621" width="35.9389762878418" height="21.33333396911621"></rect><text class="er entityLabel" id="text-entity-AMENDMENT-3e98b325-bfaf-550f-b483-be877c351794-attr-2-type" x="0" y="0" style="dominant-baseline: middle; font-size: 10.2px;" transform="translate(5,56.000000953674316)">string</text><rect class="er attributeBoxEven" x="35.9389762878418" y="45.33333396911621" width="80.02083587646484" height="21.33333396911621"></rect><text class="er entityLabel" id="text-entity-AMENDMENT-3e98b325-bfaf-550f-b483-be877c351794-attr-2-name" x="0" y="0" style="dominant-baseline: middle; font-size: 10.2px;" transform="translate(40.9389762878418,56.000000953674316)">Content</text><rect class="er attributeBoxEven" x="115.95981216430664" y="45.33333396911621" width="21.68397045135498" height="21.33333396911621"></rect><text class="er entityLabel" id="text-entity-AMENDMENT-3e98b325-bfaf-550f-b483-be877c351794-attr-2-key" x="0" y="0" style="dominant-baseline: middle; font-size: 10.2px;" transform="translate(120.95981216430664,56.000000953674316)"></text><rect class="er attributeBoxOdd" x="0" y="66.66666793823242" width="35.9389762878418" height="21.33333396911621"></rect><text class="er entityLabel" id="text-entity-AMENDMENT-3e98b325-bfaf-550f-b483-be877c351794-attr-3-type" x="0" y="0" style="dominant-baseline: middle; font-size: 10.2px;" transform="translate(5,77.33333492279053)">int</text><rect class="er attributeBoxOdd" x="35.9389762878418" y="66.66666793823242" width="80.02083587646484" height="21.33333396911621"></rect><text class="er entityLabel" id="text-entity-AMENDMENT-3e98b325-bfaf-550f-b483-be877c351794-attr-3-name" x="0" y="0" style="dominant-baseline: middle; font-size: 10.2px;" transform="translate(40.9389762878418,77.33333492279053)">Bill_ID</text><rect class="er attributeBoxOdd" x="115.95981216430664" y="66.66666793823242" width="21.68397045135498" height="21.33333396911621"></rect><text class="er entityLabel" id="text-entity-AMENDMENT-3e98b325-bfaf-550f-b483-be877c351794-attr-3-key" x="0" y="0" style="dominant-baseline: middle; font-size: 10.2px;" transform="translate(120.95981216430664,77.33333492279053)">FK</text><rect class="er attributeBoxEven" x="0" y="88.00000190734863" width="35.9389762878418" height="21.33333396911621"></rect><text class="er entityLabel" id="text-entity-AMENDMENT-3e98b325-bfaf-550f-b483-be877c351794-attr-4-type" x="0" y="0" style="dominant-baseline: middle; font-size: 10.2px;" transform="translate(5,98.66666889190674)">int</text><rect class="er attributeBoxEven" x="35.9389762878418" y="88.00000190734863" width="80.02083587646484" height="21.33333396911621"></rect><text class="er entityLabel" id="text-entity-AMENDMENT-3e98b325-bfaf-550f-b483-be877c351794-attr-4-name" x="0" y="0" style="dominant-baseline: middle; font-size: 10.2px;" transform="translate(40.9389762878418,98.66666889190674)">User_ID</text><rect class="er attributeBoxEven" x="115.95981216430664" y="88.00000190734863" width="21.68397045135498" height="21.33333396911621"></rect><text class="er entityLabel" id="text-entity-AMENDMENT-3e98b325-bfaf-550f-b483-be877c351794-attr-4-key" x="0" y="0" style="dominant-baseline: middle; font-size: 10.2px;" transform="translate(120.95981216430664,98.66666889190674)">FK</text></g><rect class="er relationshipLabelBox" x="276.8887939453125" y="142.42819213867188" width="39.625" height="14"></rect><text class="er relationshipLabel" id="rel115" x="296.7012939453125" y="149.42819213867188" style="text-anchor: middle; dominant-baseline: middle; font-size: 12px;">creates</text><rect class="er relationshipLabelBox" x="438.02740478515625" y="172.06307983398438" width="26.71875" height="14"></rect><text class="er relationshipLabel" id="rel116" x="451.38677978515625" y="179.06307983398438" style="text-anchor: middle; dominant-baseline: middle; font-size: 12px;">casts</text><rect class="er relationshipLabelBox" x="81.84659576416016" y="142.42819213867188" width="44.40625" height="14"></rect><text class="er relationshipLabel" id="rel117" x="104.04972076416016" y="149.42819213867188" style="text-anchor: middle; dominant-baseline: middle; font-size: 12px;">receives</text><rect class="er relationshipLabelBox" x="-99.69730758666992" y="201.3926544189453" width="47.177085876464844" height="14"></rect><text class="er relationshipLabel" id="rel118" x="-76.1087646484375" y="208.3926544189453" style="text-anchor: middle; dominant-baseline: middle; font-size: 12px;">proposes</text><rect class="er relationshipLabelBox" x="243.35264015197754" y="361.6680908203125" width="44.10416793823242" height="14"></rect><text class="er relationshipLabel" id="rel119" x="265.40472412109375" y="368.6680908203125" style="text-anchor: middle; dominant-baseline: middle; font-size: 12px;">includes</text><rect class="er relationshipLabelBox" x="472.9637451171875" y="308.9237060546875" width="17.71875" height="14"></rect><text class="er relationshipLabel" id="rel120" x="481.8231201171875" y="315.9237060546875" style="text-anchor: middle; dominant-baseline: middle; font-size: 12px;">has</text></svg>